<svg width="1680" height="945" viewBox="0 0 1680 945" fill="none" xmlns="http://www.w3.org/2000/svg">
  <defs>
    <linearGradient id="sky" x1="840" y1="0" x2="840" y2="380" gradientUnits="userSpaceOnUse">
      <stop stop-color="#d2d9df"/>
      <stop offset="1" stop-color="#d9d2c6"/>
    </linearGradient>
    <linearGradient id="pavement" x1="180" y1="510" x2="1500" y2="945" gradientUnits="userSpaceOnUse">
      <stop stop-color="#6a6770"/>
      <stop offset="1" stop-color="#4e4c54"/>
    </linearGradient>
    <linearGradient id="sunset" x1="0" y1="220" x2="1680" y2="300" gradientUnits="userSpaceOnUse">
      <stop stop-color="#7b5a44" stop-opacity="0.35"/>
      <stop offset="0.38" stop-color="#f0a25b" stop-opacity="0.48"/>
      <stop offset="0.78" stop-color="#ef9d51" stop-opacity="0.35"/>
      <stop offset="1" stop-color="#83624c" stop-opacity="0.3"/>
    </linearGradient>
    <filter id="photoBlur" x="-5%" y="-5%" width="110%" height="110%">
      <feGaussianBlur stdDeviation="3.2"/>
    </filter>
  </defs>

  <rect width="1680" height="945" fill="url(#sky)"/>
  <rect width="1680" height="945" fill="url(#sunset)"/>

  <g filter="url(#photoBlur)">
    <rect x="0" y="90" width="320" height="470" fill="#7f4b31"/>
    <rect x="340" y="170" width="290" height="390" fill="#b69e85"/>
    <rect x="620" y="200" width="250" height="360" fill="#a8917c"/>
    <rect x="860" y="210" width="220" height="350" fill="#9f8b78"/>
    <rect x="1065" y="190" width="210" height="370" fill="#c4a990"/>
    <rect x="1260" y="220" width="190" height="340" fill="#9a8673"/>
    <rect x="1420" y="120" width="260" height="440" fill="#8d7b6a"/>

    <rect x="0" y="540" width="1680" height="405" fill="url(#pavement)"/>

    <rect x="670" y="560" width="340" height="180" fill="#4a474f"/>
    <rect x="720" y="500" width="240" height="140" fill="#66616a"/>
    <rect x="770" y="420" width="140" height="115" fill="#77727c"/>
    <rect x="800" y="350" width="80" height="110" fill="#3a5458"/>
    <ellipse cx="840" cy="345" rx="35" ry="25" fill="#2f4a50"/>

    <ellipse cx="500" cy="515" rx="24" ry="48" fill="#365a3f"/>
    <ellipse cx="620" cy="500" rx="20" ry="42" fill="#2f5238"/>
    <ellipse cx="1120" cy="495" rx="20" ry="44" fill="#34583e"/>
    <ellipse cx="1260" cy="500" rx="21" ry="46" fill="#314f38"/>
    <ellipse cx="1380" cy="510" rx="22" ry="45" fill="#2c4a35"/>

    <g opacity="0.35" stroke="#8a8790" stroke-width="2">
      <path d="M0 690H1680"/>
      <path d="M0 760H1680"/>
      <path d="M0 835H1680"/>
      <path d="M120 560V945"/>
      <path d="M320 560V945"/>
      <path d="M520 560V945"/>
      <path d="M720 560V945"/>
      <path d="M920 560V945"/>
      <path d="M1120 560V945"/>
      <path d="M1320 560V945"/>
      <path d="M1520 560V945"/>
    </g>
  </g>
</svg>
